<?xml version="1.0" standalone="no"?><!DOCTYPE svg PUBLIC "-//W3C//DTD SVG 1.1//EN" "http://www.w3.org/Graphics/SVG/1.1/DTD/svg11.dtd"><svg t="1638347288436" class="icon" viewBox="0 0 1024 1024" version="1.1" xmlns="http://www.w3.org/2000/svg" p-id="19541" xmlns:xlink="http://www.w3.org/1999/xlink" width="200" height="200"><defs><style type="text/css"></style></defs><path d="M830.227195 1024a132.746729 132.746729 0 0 1-58.785528-13.812867L512 881.436434l-259.464766 128.750699c-40.237481 19.933953-90.2687 17.624109-128.450419-6.097987a131.222232 131.222232 0 0 1-62.504376-112.281513V132.192367A132.354056 132.354056 0 0 1 193.772805 0h636.45439a132.354056 132.354056 0 0 1 132.192366 132.192367v759.615266a131.245331 131.245331 0 0 1-62.550572 112.327709 131.822792 131.822792 0 0 1-69.641794 19.864658zM512 742.129748a132.816025 132.816025 0 0 1 58.716232 13.76667l253.112695 125.609311V138.590634h-623.657854v742.891997l253.066498-125.609312a133.439682 133.439682 0 0 1 58.762429-13.743571z" p-id="19542"></path></svg>